<svg width="617" height="620" viewBox="0 0 617 620" fill="none" xmlns="http://www.w3.org/2000/svg">
<g id="Persona">
<g id="Bordes">
<path id="Vector" d="M19.2812 154.921C21.1989 154.921 23.038 154.156 24.394 152.793C25.7499 151.431 26.5117 149.583 26.5117 147.656V53.2812H120.922C122.84 53.2812 124.679 52.5158 126.035 51.1532C127.391 49.7906 128.153 47.9426 128.153 46.0156C128.153 44.0887 127.391 42.2406 126.035 40.8781C124.679 39.5155 122.84 38.75 120.922 38.75H19.2812C15.2888 38.75 12.0508 41.5073 12.0508 45.5191V147.656C12.0508 149.583 12.8126 151.431 14.1685 152.793C15.5245 154.156 17.3636 154.921 19.2812 154.921V154.921Z" fill="black"/>
<path id="Vector_2" d="M597.719 38.75H496.078C494.16 38.75 492.321 39.5155 490.965 40.8781C489.609 42.2406 488.847 44.0887 488.847 46.0156C488.847 47.9426 489.609 49.7906 490.965 51.1532C492.321 52.5158 494.16 53.2812 496.078 53.2812H590.488V147.656C590.488 149.583 591.25 151.431 592.606 152.793C593.962 154.156 595.801 154.921 597.719 154.921C599.636 154.921 601.475 154.156 602.831 152.793C604.187 151.431 604.949 149.583 604.949 147.656V45.5191C604.949 41.5073 601.711 38.75 597.719 38.75Z" fill="black"/>
<path id="Vector_3" d="M19.2812 581.25H120.922C122.84 581.25 124.679 580.485 126.035 579.122C127.391 577.759 128.153 575.911 128.153 573.984C128.153 572.057 127.391 570.209 126.035 568.847C124.679 567.484 122.84 566.719 120.922 566.719H26.5117V472.341C26.5117 470.414 25.7499 468.566 24.394 467.203C23.038 465.841 21.1989 465.075 19.2812 465.075C17.3636 465.075 15.5245 465.841 14.1685 467.203C12.8126 468.566 12.0508 470.414 12.0508 472.341V574.476C12.0508 578.489 15.2888 581.25 19.2812 581.25Z" fill="black"/>
<path id="Vector_4" d="M597.719 465.075C595.801 465.075 593.962 465.841 592.606 467.203C591.25 468.566 590.488 470.414 590.488 472.341V566.719H496.078C494.16 566.719 492.321 567.484 490.965 568.847C489.609 570.209 488.847 572.057 488.847 573.984C488.847 575.911 489.609 577.759 490.965 579.122C492.321 580.485 494.16 581.25 496.078 581.25H597.719C601.711 581.25 604.949 578.489 604.949 574.476V472.341C604.949 470.414 604.187 468.566 602.831 467.203C601.475 465.841 599.636 465.075 597.719 465.075V465.075Z" fill="black"/>
</g>
<g id="Lente">
<path id="Vector_5" d="M517.444 478.272C518.201 478.848 519.063 479.269 519.982 479.51C520.9 479.751 521.857 479.808 522.798 479.678C523.739 479.547 524.645 479.232 525.464 478.75C526.283 478.268 527 477.628 527.574 476.867C563.776 428.843 583.368 370.247 583.368 310C583.368 249.753 563.776 191.157 527.574 143.133C527.003 142.365 526.287 141.719 525.466 141.23C524.646 140.742 523.737 140.422 522.793 140.288C521.849 140.154 520.888 140.209 519.965 140.449C519.042 140.69 518.175 141.112 517.415 141.69C516.655 142.269 516.017 142.993 515.536 143.821C515.056 144.648 514.743 145.563 514.616 146.513C514.488 147.462 514.549 148.428 514.795 149.354C515.041 150.279 515.466 151.147 516.047 151.907C550.346 197.407 568.909 252.923 568.909 310.002C568.909 367.082 550.346 422.598 516.047 468.098C514.89 469.633 514.388 471.567 514.65 473.475C514.912 475.383 515.917 477.108 517.444 478.272V478.272Z" fill="black"/>
<path id="Vector_6" d="M99.5611 141.728C98.8043 141.152 97.9419 140.731 97.0232 140.49C96.1045 140.248 95.1476 140.191 94.2069 140.322C93.2663 140.452 92.3604 140.767 91.5409 141.249C90.7215 141.731 90.0046 142.371 89.4312 143.132C53.2291 191.156 33.6364 249.752 33.6364 309.999C33.6364 370.246 53.2291 428.842 89.4312 476.866C90.0046 477.627 90.7214 478.266 91.5408 478.748C92.3602 479.231 93.266 479.546 94.2067 479.676C95.1473 479.807 96.1043 479.75 97.023 479.509C97.9418 479.267 98.8042 478.847 99.5611 478.271C100.318 477.695 100.955 476.974 101.435 476.151C101.914 475.328 102.228 474.417 102.358 473.472C102.488 472.527 102.431 471.565 102.191 470.642C101.951 469.719 101.532 468.852 100.959 468.092C66.6606 422.593 48.0982 367.078 48.0982 310C48.0982 252.922 66.6606 197.407 100.959 151.908C101.533 151.148 101.951 150.281 102.192 149.358C102.432 148.434 102.489 147.473 102.359 146.527C102.229 145.582 101.915 144.672 101.435 143.848C100.955 143.025 100.318 142.304 99.5611 141.728V141.728Z" fill="black"/>
<path id="Vector_7" d="M151.17 101.448C196.448 66.9815 251.695 48.3284 308.498 48.3284C365.3 48.3284 420.547 66.9815 465.825 101.448C466.582 102.031 467.445 102.459 468.367 102.706C469.288 102.952 470.249 103.014 471.194 102.886C472.139 102.758 473.049 102.444 473.873 101.961C474.697 101.478 475.417 100.836 475.993 100.072C476.569 99.3087 476.988 98.438 477.228 97.5106C477.467 96.5832 477.522 95.6173 477.389 94.6685C477.255 93.7198 476.936 92.807 476.451 91.9825C475.965 91.1581 475.321 90.4384 474.557 89.8649C426.766 53.4858 368.453 33.7972 308.498 33.7972C248.542 33.7972 190.229 53.4858 142.438 89.8649C141.674 90.4384 141.031 91.1581 140.545 91.9825C140.059 92.807 139.74 93.7198 139.606 94.6685C139.473 95.6173 139.528 96.5832 139.767 97.5106C140.007 98.438 140.427 99.3087 141.002 100.072C141.578 100.836 142.299 101.478 143.122 101.961C143.946 102.444 144.856 102.758 145.801 102.886C146.746 103.014 147.707 102.952 148.629 102.706C149.55 102.459 150.414 102.031 151.17 101.448V101.448Z" fill="black"/>
<path id="Vector_8" d="M141.04 519.957C140.467 520.718 140.048 521.584 139.808 522.508C139.568 523.431 139.511 524.392 139.641 525.338C139.771 526.283 140.084 527.193 140.564 528.017C141.044 528.84 141.681 529.56 142.438 530.136C190.229 566.515 248.542 586.203 308.498 586.203C368.453 586.203 426.766 566.515 474.557 530.136C475.321 529.563 475.965 528.843 476.451 528.019C476.936 527.194 477.255 526.281 477.389 525.333C477.522 524.384 477.467 523.418 477.228 522.491C476.988 521.563 476.569 520.693 475.993 519.929C475.417 519.165 474.697 518.523 473.873 518.04C473.049 517.558 472.139 517.243 471.194 517.115C470.249 516.988 469.288 517.049 468.367 517.296C467.445 517.543 466.582 517.97 465.825 518.554C420.547 553.019 365.3 571.672 308.498 571.672C251.695 571.672 196.448 553.019 151.17 518.554C150.413 517.977 149.551 517.557 148.632 517.315C147.713 517.074 146.756 517.017 145.816 517.147C144.875 517.278 143.969 517.593 143.15 518.075C142.33 518.557 141.613 519.197 141.04 519.957V519.957Z" fill="black"/>
</g>
<g id="Person">
<path id="Vector_9" d="M250.796 351.172C224.255 351.25 198.824 361.879 180.057 380.737C161.29 399.596 150.712 425.151 150.635 451.82V487.31C150.635 489.101 151.343 490.818 152.603 492.085C153.863 493.351 155.572 494.062 157.354 494.063H458.684C460.721 494.063 462.675 493.249 464.115 491.802C465.556 490.354 466.365 488.391 466.365 486.344V451.82C466.288 425.151 455.71 399.596 436.943 380.737C418.176 361.879 392.745 351.25 366.204 351.172H356.703V341.475C367.49 334.88 376.818 326.137 384.115 315.783C391.412 305.429 396.523 293.684 399.133 281.271C399.374 280.121 399.64 278.97 399.961 277.846L402.953 267.301C410.072 264.811 416.013 259.748 419.621 253.097C423.228 246.446 424.242 238.684 422.465 231.323C421.495 227.446 419.613 223.859 416.977 220.864C414.341 217.869 411.028 215.554 407.316 214.113V174.394C407.316 119.773 363.948 74.4303 309.594 73.8357C296.537 73.7038 283.583 76.1711 271.479 81.0953C259.375 86.0195 248.362 93.3031 239.073 102.526C229.785 111.749 222.406 122.729 217.362 134.832C212.317 146.935 209.708 159.921 209.684 173.043V214.1C205.97 215.541 202.655 217.858 200.018 220.855C197.382 223.852 195.5 227.443 194.532 231.323C192.77 238.691 193.797 246.454 197.414 253.104C201.031 259.753 206.979 264.813 214.103 267.301L217.072 277.957C217.366 279.016 217.613 280.089 217.838 281.164C220.438 293.599 225.547 305.366 232.85 315.739C240.153 326.112 249.494 334.871 260.297 341.475V351.172H250.796ZM392.855 173.043V211.025C383.215 207.827 365.251 198.863 348.575 173.906C363.118 166.632 376.57 157.338 388.536 146.297C391.4 154.92 392.859 163.952 392.855 173.043V173.043ZM224.145 173.043C224.153 154.255 230.375 136.002 241.834 121.156C253.294 106.309 269.339 95.7115 287.446 91.0293C305.554 86.347 324.696 87.8458 341.864 95.29C359.031 102.734 373.249 115.701 382.281 132.152C335.708 178.235 271.849 182.193 246.107 181.711C241.828 181.621 237.68 183.19 234.521 186.091C231.362 188.992 229.436 193.004 229.142 197.294L228.277 209.79C228.277 209.848 228.27 209.911 228.267 209.966C228.228 210.843 227.96 211.695 227.49 212.435C227.02 213.175 226.364 213.778 225.588 214.183C225.293 214.343 225.347 214.565 224.142 214.697L224.145 173.043ZM232.184 278.419C231.915 277.156 231.626 275.898 231.27 274.656L227.072 260.034C226.808 258.571 226.104 257.224 225.055 256.175C224.005 255.127 222.661 254.427 221.203 254.171C217.549 253.531 214.238 251.614 211.855 248.759C209.471 245.903 208.168 242.294 208.176 238.567C208.175 237.291 208.327 236.02 208.627 234.78C209.007 233.107 209.816 231.563 210.973 230.3C212.13 229.037 213.594 228.1 215.222 227.58C218.114 228.895 221.282 229.479 224.45 229.283C227.618 229.087 230.691 228.116 233.4 226.455C236.11 224.793 238.374 222.492 239.997 219.751C241.62 217.01 242.552 213.912 242.711 210.726L243.575 198.308C243.624 197.739 243.886 197.209 244.307 196.826C244.728 196.442 245.278 196.233 245.847 196.24C263.778 196.581 298.94 194.883 335.213 179.987C364.077 224.643 398.108 227.184 399.598 227.272C399.94 227.291 400.283 227.284 400.625 227.253C402.5 227.625 404.229 228.533 405.604 229.868C406.978 231.203 407.94 232.909 408.373 234.78C408.673 236.02 408.825 237.291 408.824 238.567C408.832 242.294 407.529 245.903 405.145 248.759C402.762 251.614 399.451 253.531 395.797 254.171C394.339 254.427 392.995 255.127 391.945 256.175C390.896 257.224 390.192 258.571 389.928 260.034L385.736 274.633C385.374 275.879 385.086 277.145 384.818 278.413C381.081 295.966 371.466 311.7 357.576 322.987C343.686 334.274 326.364 340.432 308.501 340.432C290.637 340.432 273.315 334.274 259.425 322.987C245.536 311.7 235.92 295.966 232.184 278.413V278.419ZM342.242 348.645V363.5C342.242 380.296 328.372 393.555 311.657 393.555H305.343C288.628 393.555 274.758 380.296 274.758 363.5V348.645C296.471 357.071 320.529 357.071 342.242 348.645ZM260.649 365.703C261.215 377.198 266.182 388.029 274.512 395.928C282.842 403.827 293.889 408.184 305.343 408.086H311.657C323.111 408.184 334.158 403.827 342.488 395.928C350.818 388.029 355.786 377.198 356.351 365.703H366.204C413.212 365.703 451.904 404.515 451.904 451.751V479.531H165.096V451.751C165.096 404.515 203.788 365.703 250.796 365.703H260.649Z" fill="black"/>
<path id="Vector_10" d="M205.112 401.977C198.276 408.323 192.819 416.02 189.08 424.583C185.341 433.147 183.402 442.395 183.384 451.746C183.384 453.673 184.146 455.521 185.502 456.884C186.858 458.246 188.697 459.012 190.614 459.012C192.532 459.012 194.371 458.246 195.727 456.884C197.083 455.521 197.845 453.673 197.845 451.746C197.86 444.4 199.384 437.135 202.322 430.408C205.26 423.681 209.548 417.635 214.918 412.65C215.628 412.006 216.203 411.227 216.61 410.358C217.018 409.489 217.25 408.548 217.294 407.589C217.337 406.629 217.191 405.67 216.863 404.768C216.535 403.866 216.032 403.038 215.384 402.332C214.736 401.626 213.955 401.056 213.086 400.656C212.217 400.255 211.278 400.032 210.323 399.998C209.367 399.965 208.415 400.122 207.52 400.461C206.626 400.799 205.807 401.313 205.112 401.972V401.977Z" fill="black"/>
<path id="Vector_11" d="M235.759 385.71C233.609 386.205 231.461 386.813 229.372 387.517C228.472 387.821 227.64 388.3 226.924 388.927C226.208 389.553 225.622 390.316 225.2 391.17C224.777 392.025 224.526 392.954 224.461 393.906C224.396 394.858 224.518 395.814 224.82 396.718C225.122 397.623 225.599 398.459 226.223 399.178C226.847 399.897 227.605 400.486 228.456 400.911C229.306 401.336 230.231 401.588 231.178 401.654C232.126 401.719 233.077 401.596 233.977 401.293C235.613 400.74 237.298 400.264 238.985 399.876C240.855 399.446 242.478 398.287 243.497 396.654C244.517 395.022 244.849 393.049 244.421 391.17C243.993 389.292 242.84 387.661 241.215 386.636C239.591 385.612 237.628 385.278 235.758 385.708L235.759 385.71Z" fill="black"/>
</g>
</g>
</svg>
