<?xml version="1.0" encoding="utf-8"?>
<!-- Generator: Adobe Illustrator 25.2.1, SVG Export Plug-In . SVG Version: 6.00 Build 0)  -->
<svg version="1.1" id="Capa_1" xmlns="http://www.w3.org/2000/svg" xmlns:xlink="http://www.w3.org/1999/xlink" x="0px" y="0px"
	 viewBox="0 0 3061.42 3061.42" style="enable-background:new 0 0 3061.42 3061.42;" xml:space="preserve">
<style type="text/css">
	.st0{fill:url(#SVGID_1_);}
	.st1{fill:url(#SVGID_2_);}
	.st2{fill:url(#SVGID_3_);}
	.st3{fill:url(#SVGID_4_);}
	.st4{fill:url(#SVGID_5_);}
	.st5{fill:url(#SVGID_6_);}
	.st6{fill:url(#SVGID_7_);}
	.st7{clip-path:url(#SVGID_9_);fill:none;}
	.st8{clip-path:url(#SVGID_9_);}
	.st9{fill:url(#SVGID_10_);}
	.st10{fill:url(#SVGID_11_);}
	.st11{fill:#373636;}
	.st12{fill:url(#SVGID_12_);}
	.st13{fill:url(#SVGID_13_);}
	.st14{fill:url(#SVGID_14_);}
	.st15{fill:url(#SVGID_15_);}
	.st16{fill:url(#SVGID_16_);}
	.st17{fill:url(#SVGID_17_);}
	.st18{fill:url(#SVGID_18_);}
	.st19{fill:url(#SVGID_19_);}
</style>
<g>
	<g>
		<linearGradient id="SVGID_1_" gradientUnits="userSpaceOnUse" x1="743.4346" y1="1609.9209" x2="1086.4648" y2="1609.9209">
			<stop  offset="0" style="stop-color:#0E3248"/>
			<stop  offset="1" style="stop-color:#1C786A"/>
		</linearGradient>
		<path class="st0" d="M743.43,1686.93c0-72.65,66.51-112.08,223.36-126.62c0.77-0.07,1.37-0.69,1.31-1.36
			c-2.74-29.56-20.27-48.77-63.01-48.77c-33.13,0-66.16,11.95-104.34,30.62c-0.7,0.34-1.59,0.12-1.97-0.49l-40.69-65.12
			c-0.37-0.58-0.14-1.32,0.52-1.66c50.36-26.49,107.03-44.9,169.3-44.9c102.03,0,158.55,50.52,158.55,156.49l-0.02,193.19
			c0,7.12-6.67,12.9-14.89,12.9h-81.25c-5.65,0-10.18-4.04-10.01-8.93l1.12-33.58c0.02-0.7-0.63-1.28-1.43-1.28l0,0
			c-0.94,0-1.85,0.3-2.56,0.83c-33.32,25.15-70.65,42.96-115.02,42.96C789.62,1791.21,743.43,1745.19,743.43,1686.93z
			 M968.21,1681.84l0-58.46c0-0.75-0.78-1.34-1.64-1.23c-82.81,9.92-109.89,30.64-109.89,56.61c0,22.29,17.69,33.2,45.79,33.2
			c26.59,0,44.5-11.32,65.31-29.22C968.05,1682.5,968.21,1682.18,968.21,1681.84z"/>
		<linearGradient id="SVGID_2_" gradientUnits="userSpaceOnUse" x1="1440.3381" y1="1609.1677" x2="1783.3684" y2="1609.1677">
			<stop  offset="0" style="stop-color:#0E3248"/>
			<stop  offset="1" style="stop-color:#1C786A"/>
		</linearGradient>
		<path class="st1" d="M1440.34,1686.17c0-72.65,66.51-112.08,223.36-126.62c0.77-0.07,1.37-0.69,1.31-1.36
			c-2.74-29.56-20.27-48.77-63.01-48.77c-33.13,0-66.16,11.95-104.34,30.62c-0.7,0.34-1.59,0.12-1.97-0.49l-40.69-65.12
			c-0.37-0.58-0.14-1.32,0.52-1.66c50.36-26.49,107.03-44.9,169.3-44.9c102.03,0,158.55,50.52,158.55,156.49l-0.02,194.11
			c0,6.62-6.19,11.98-13.82,11.98h-83.41c-5.05,0-9.1-3.61-8.95-7.98l1.16-34.53c0.02-0.7-0.63-1.28-1.43-1.28l0,0
			c-0.94,0-1.85,0.3-2.56,0.83c-33.32,25.15-70.65,42.96-115.02,42.96C1486.52,1790.46,1440.34,1744.44,1440.34,1686.17z
			 M1665.11,1681.09l0-58.46c0-0.75-0.78-1.34-1.64-1.23c-82.81,9.92-109.89,30.64-109.89,56.61c0,22.29,17.69,33.2,45.79,33.2
			c26.59,0,44.5-11.32,65.31-29.22C1664.95,1681.75,1665.11,1681.42,1665.11,1681.09z"/>
		<linearGradient id="SVGID_3_" gradientUnits="userSpaceOnUse" x1="1123.6891" y1="1568.1718" x2="1403.1139" y2="1568.1718">
			<stop  offset="0" style="stop-color:#0E3248"/>
			<stop  offset="1" style="stop-color:#1C786A"/>
		</linearGradient>
		<path class="st2" d="M1178.2,1657.1v-131.58c0-4.49-4.2-8.13-9.38-8.13h-35.76c-5.18,0-9.38-3.64-9.38-8.13v-60.8
			c0-4.25,3.78-7.79,8.68-8.1l37.15-2.4c4.89-0.32,8.68-3.85,8.68-8.1v-76.61c0-4.49,4.2-8.13,9.38-8.13l99.51,0.01
			c5.18,0,9.38,3.64,9.38,8.13v75.6c0,4.49,4.2,8.13,9.38,8.13h76.92c5.18,0,9.38,3.64,9.38,8.13v64.15c0,4.49-4.2,8.13-9.38,8.13
			h-76.92c-5.18,0-9.38,3.64-9.38,8.13v130.35c0,39.2,20.54,54.94,51.67,54.94c9.5,0,19.59-1.71,28.42-3.89
			c5.2-1.29,10.57,1.5,11.72,6.09l14.63,58.36c1.04,4.15-1.77,8.3-6.47,9.51c-20.24,5.19-46.51,10.34-80.4,10.34
			C1217.4,1791.21,1178.2,1737.24,1178.2,1657.1z"/>
		<linearGradient id="SVGID_4_" gradientUnits="userSpaceOnUse" x1="1533.9786" y1="1447.0148" x2="1533.9786" y2="1447.0148">
			<stop  offset="0" style="stop-color:#0E3248"/>
			<stop  offset="1" style="stop-color:#1C786A"/>
		</linearGradient>
		<path class="st3" d="M1533.98,1447.01"/>
		
			<linearGradient id="SVGID_5_" gradientUnits="userSpaceOnUse" x1="1812.1309" y1="1560.3494" x2="2172.239" y2="1560.3494" gradientTransform="matrix(0.9964 0.0845 -0.0845 0.9964 138.6514 -167.904)">
			<stop  offset="0" style="stop-color:#0E3248"/>
			<stop  offset="1" style="stop-color:#1C786A"/>
		</linearGradient>
		<path class="st4" d="M2076.45,1536.9l-63.01-31.6c-43.2-21.37-75.81-35.7-71.95-63.31c3.61-25.74,31.46-37.1,71.99-31.98
			c36.8,4.65,65.35,18.45,93.22,40.72c3.09,2.46,8.01,0.95,8.51-2.61l12.84-93.41c0.24-1.71-0.67-3.42-2.36-4.36
			c-30.54-17.21-65.4-23.84-99.91-28.19c-108.25-13.67-193.58,36.17-204.03,110.76c-9.16,65.4,36.53,110.17,87.76,135.94
			l64.09,33.47c43.17,21.9,71.45,34.73,67.48,63.07c-3.74,26.71-30.1,40.41-79.18,34.21c-42.8-5.4-88.08-30.63-121.16-63.17l0,0
			c-0.91,0.72-1.47,1.7-1.59,2.77c-4,34.83-8.61,70.11-12.01,105.1c-0.16,1.67,0.76,3.3,2.4,4.22
			c36.31,20.33,77.06,33.51,117.42,38.61c123.93,15.65,205.01-40.02,215.48-114.77C2171.37,1608.75,2136.85,1567.14,2076.45,1536.9z
			"/>
		<linearGradient id="SVGID_6_" gradientUnits="userSpaceOnUse" x1="2201.0762" y1="1609.9209" x2="2559.3347" y2="1609.9209">
			<stop  offset="0" style="stop-color:#0E3248"/>
			<stop  offset="1" style="stop-color:#1C786A"/>
		</linearGradient>
		<path class="st5" d="M2201.08,1610.04c0-112.19,92.38-181.41,188.26-181.41c113.68,0,170,71.6,170,166
			c0,16.34-2.08,32.68-4.13,42.02c-0.42,1.9-2.32,3.27-4.55,3.27h-229.35c-2.95,0-5.17,2.37-4.53,4.86
			c12.09,46.8,50.86,68.33,102.38,68.33c28.78,0,54.81-7.23,82.27-20.62c2.24-1.09,5.07-0.37,6.31,1.57l34.81,54.99
			c1.15,1.82,0.53,4.11-1.46,5.25c-40.41,23.28-92.13,36.91-138.11,36.91C2289.2,1791.21,2201.08,1724.53,2201.08,1610.04z
			 M2453.59,1572.15c2.62,0,4.72-1.88,4.64-4.15c-1.36-35.85-20.76-61.26-66.24-61.26c-35.98,0-67.22,20.13-76.68,60.62
			c-0.58,2.47,1.64,4.78,4.55,4.78H2453.59z"/>
		<linearGradient id="SVGID_7_" gradientUnits="userSpaceOnUse" x1="2596.5588" y1="1609.1677" x2="2826.3962" y2="1609.1677">
			<stop  offset="0" style="stop-color:#0E3248"/>
			<stop  offset="1" style="stop-color:#1C786A"/>
		</linearGradient>
		<path class="st6" d="M2807.16,1707.76c-51.37,0-89.41-38.62-89.41-98.47c0-59.85,36.52-98.71,93.39-98.71c0.05,0,0.1,0,0.15,0
			c8.02,0.01,14.61-5.44,14.66-12.39c0.15-19.2,0.29-38.4,0.44-57.61c0.05-6.7-6.01-12.29-13.73-12.56
			c-2.68-0.09-5.4-0.14-8.15-0.14c-110.27,0-207.95,66.43-207.95,181.41c0,114.74,85.94,181.17,197.35,181.17
			c5.42,0,10.93-0.18,16.51-0.56c7.51-0.5,13.36-5.85,13.41-12.38c0.15-19.09,0.29-38.17,0.44-57.24
			c0.05-7.01-6.56-12.79-14.64-12.56C2808.81,1707.75,2807.99,1707.76,2807.16,1707.76z"/>
	</g>
	<g>
		<defs>
			<path id="SVGID_8_" d="M404.73,1270.21H260.77c-14.22,0-25.75,9.99-25.75,22.31l5.03,475.56c0,12.32,6.5,22.31,20.72,22.31
				h151.55c189.17,0,293.89-83.56,293.89-262.34C706.21,1349.25,588.08,1270.21,404.73,1270.21z M401.53,1695.71L401.53,1695.71
				c-14.22,0-25.75-9.99-25.75-22.31l-5.03-286.19c0-12.32,11.53-22.31,25.75-22.31l0,0c101.82,0,175.66,38.75,175.66,163.15
				C572.16,1652.45,503.35,1695.71,401.53,1695.71z"/>
		</defs>
		<clipPath id="SVGID_9_">
			<use xlink:href="#SVGID_8_"  style="overflow:visible;"/>
		</clipPath>
		<path class="st7" d="M1121.33,2079.71H-57.7c-2.19,0-3.97-1.77-3.99-3.96L-70.7,984.73c-0.02-2.22,1.77-4.03,3.99-4.03h1179.03
			c2.19,0,3.97,1.77,3.99,3.96l9.01,1091.01C1125.34,2077.9,1123.55,2079.71,1121.33,2079.71z"/>
		<g class="st8">
			<g>
				<linearGradient id="SVGID_10_" gradientUnits="userSpaceOnUse" x1="79.4114" y1="1374.7664" x2="926.8201" y2="1374.7664">
					<stop  offset="0" style="stop-color:#0E3248"/>
					<stop  offset="1" style="stop-color:#1C786A"/>
				</linearGradient>
				<path class="st9" d="M252.85,1332.36c-0.01,0.09-0.01,0.19-0.01,0.28c-0.03,16.12,4.15,32.83,10.96,49.15
					c9.17,21.98,14.48,44.74,13.46,68.09c-1.47,33.87-6.68,65.24-32.77,91.86c-25.99,26.52-59.68,38.98-98.56,42.81
					c-15.56,1.53-31.15,1.21-46.71,0.01c-4.67-0.36-9.42-0.38-13.68-2.7c-5.17-2.81-6.98-6.96-5.75-11.72
					c1.25-4.83,4.85-7.82,11.28-7.62c14.19,0.45,28.39,1.13,42.57,0.88c27.47-0.48,52.75-7.27,74.77-21.84
					c25.93-17.16,34.11-40.9,40.83-67.86c6.86-27.52,2.83-54.38-7.87-80.49c-7.97-19.45-13.48-39.36-13.69-59.81
					c-0.32-29.98,7.48-58.74,25.06-84.85c29.32-43.56,72.27-71.69,129.71-81.2c64.54-10.68,121.11,3.83,169.89,42.46
					c27.76,21.99,41.16,50.95,57.05,79.19c58.57,104.1,149.5,173.89,283.35,197.05c7.71,1.33,15.53,2.2,23.22,3.61
					c8.92,1.64,11.56,5,10.73,12.43c-0.79,7.12-5.98,8.94-13.2,8.6c-16.31-0.76-32.21-3.76-47.9-7.27
					c-123.42-27.59-211.27-93.4-270.39-189.75c-7.88-12.84-14.35-26.32-21.45-39.49c-27.33-50.67-71.98-81.17-137.49-87.52
					c-92.17-8.93-168.39,50.98-180.95,120.24C253.82,1314.96,253.4,1323.04,252.85,1332.36z"/>
				<linearGradient id="SVGID_11_" gradientUnits="userSpaceOnUse" x1="79.5399" y1="1414.1566" x2="927.0029" y2="1414.1566">
					<stop  offset="0" style="stop-color:#0E3248"/>
					<stop  offset="1" style="stop-color:#1C786A"/>
				</linearGradient>
				<path class="st10" d="M296.94,1446.59c0.43-26.16-6.46-49.29-15.24-72.27c-15.01-39.3-11.56-77.3,14.63-112.53
					c26.44-35.57,64.08-54.89,113.34-58.15c67.91-4.5,124.59,30.64,148.67,81.66c33.35,70.65,84.4,129.87,155.6,175.26
					c57.77,36.83,122.6,59.06,193.79,67.22c3.11,0.36,6.22,0.88,9.22,1.65c8.55,2.18,11.28,5.95,9.58,12.87
					c-1.29,5.27-7.25,9-14.18,8.14c-30.06-3.76-59.72-8.85-88.76-16.96c-68.36-19.1-127.77-50.92-178.32-94.65
					c-47.71-41.28-84.29-89.42-109.78-143.62c-12.15-25.85-31.18-46.07-60.14-58.97c-61.58-27.43-141.41-5.38-169.14,56.45
					c-10.81,24.11-11.72,48.44-1.15,73.08c12.56,29.28,18.82,59.67,16.59,90.96c-4.07,56.97-23.8,104.93-79.05,138.47
					c-24.38,14.8-52.06,23.44-81.59,27c-22.87,2.76-45.82,4.43-68.84,0.75c-9.26-1.48-12.74-4.34-12.6-11.23
					c0.12-5.89,3.37-9.65,10.26-10.07c5.22-0.31,10.55-0.19,15.75,0.36c39.29,4.2,76.65-2.18,110.83-18.56
					c47.27-22.65,67.11-59.62,77.26-104.69C296.16,1467.58,297.49,1456.26,296.94,1446.59z"/>
				<path class="st11" d="M414.3,1125.15c70.48-0.05,126.33,20.3,172.94,59.18c26.47,22.08,43.14,49.83,57.86,78.91
					c32.25,63.73,81.06,115.62,151.16,151.2c35.73,18.14,74.54,28.95,115.02,35.64c1.02,0.17,2.12,0.03,3.13,0.23
					c10.06,1.92,13.27,5.28,12.26,12.78c-0.94,6.95-5.51,9.73-16.49,8.36c-18.67-2.33-37.09-5.91-55.06-10.89
					c-94.73-26.21-163.69-79.38-213.02-153.04c-10.3-15.38-18.44-31.66-26.83-47.86c-33.1-63.88-89.18-101.58-169.72-111.26
					c-60.81-7.31-115.01,7.54-161.02,41.03c-67.24,48.94-94.55,127.43-65.07,199.92c8.89,21.85,13.07,43.89,11.78,66.91
					c-2.82,50.08-34.61,88.8-98.94,89.92c-14.1,0.25-28.4,1.48-42.28-2.37c-8.86-2.46-11.88-5.99-10.25-12.51
					c1.5-6,7.34-9.49,15.6-8.3c19.36,2.78,38.51,3.29,57.76-0.94c32.82-7.22,44.66-26.98,51.76-54.08
					c5.86-22.36,1.78-44.19-7.12-65.47c-10.68-25.54-16.21-51.84-14.58-78.99c3.04-50.87,23.45-95.57,63.87-133.13
					c34.81-32.36,77.05-52.95,127.13-61.45C389.15,1126.37,404.21,1124.47,414.3,1125.15z"/>
				<linearGradient id="SVGID_12_" gradientUnits="userSpaceOnUse" x1="79.5286" y1="1452.6261" x2="926.8361" y2="1452.6261">
					<stop  offset="0" style="stop-color:#0E3248"/>
					<stop  offset="1" style="stop-color:#1C786A"/>
				</linearGradient>
				<path class="st12" d="M341.05,1447.71c-0.01-0.16-0.01-0.32-0.01-0.48c1.5-30.42-5.72-58.17-16.71-85.33
					c-21.52-53.17,12.19-107.01,75.67-118.29c48.79-8.67,96.84,13.41,116.43,56.12c21.72,47.33,52.19,90.31,90.9,128.56
					c72.33,71.47,162.09,117.2,270.44,134.61c12.35,1.98,24.79,3.55,37.22,5.15c6.41,0.83,10.77,3.26,11.64,9.22
					c1.14,7.75-2.69,12-12.47,11.95c-16.29-0.08-32.32-2.93-48.16-5.77c-74.55-13.38-142.59-39.44-203.11-79.74
					c-38.79-25.83-118.48-106.56-145.41-150.7c-10.06-16.5-19.26-33.36-27.72-50.52c-18.29-37.09-76.11-52.45-116.68-25.16
					c-25.14,16.91-37.3,46.95-26.68,72.91c11.83,28.92,19.5,58.43,20.3,89.13c2.55,97.95-53.55,192.81-180.12,218.35
					c-28.83,5.82-58.25,6.34-87.7,5.48c-3.07-0.09-6.07-1.32-9.15-1.66c-7.9-0.87-10.86-4.98-10.11-11.4
					c0.72-6.2,6.74-10.95,14.5-9.6c11.03,1.92,22,1.59,32.97,1.35c52.29-1.12,100.3-12.97,141.37-42.47
					c36.55-26.25,58.69-60.06,70.64-99.3C344.48,1482.52,342.39,1464.6,341.05,1447.71z"/>
				<linearGradient id="SVGID_13_" gradientUnits="userSpaceOnUse" x1="80.6713" y1="1491.3431" x2="926.8242" y2="1491.3431">
					<stop  offset="0" style="stop-color:#0E3248"/>
					<stop  offset="1" style="stop-color:#1C786A"/>
				</linearGradient>
				<path class="st13" d="M124.17,1701.62c-0.1-0.01-0.21-0.01-0.31-0.01c-9.42,0-18.85,0.27-28.25-0.08
					c-9.74-0.36-14.8-4.32-14.94-10.8c-0.15-6.96,4.25-10.01,14.68-10.43c14.16-0.58,28.24,0.87,42.5,0.26
					c60.6-2.6,115.43-18.52,161.83-52.75c43.36-31.99,70.3-73.18,83.78-120.92c14.89-52.71,4.82-104.52-15.9-155.38
					c-7.05-17.31-6.96-33.67,5.19-49.41c23-29.82,76.52-28.46,96.37,3.01c9.29,14.73,16.28,30.53,24.93,45.57
					c27.88,48.48,63.67,92.2,108.46,129.96c72.73,61.3,181.85,107.41,269.83,120.97c12.88,1.99,25.94,3.14,38.84,5.03
					c5.48,0.8,12.23,0.54,14.51,6.45c3.69,9.54-1.97,16.12-12.52,15.41c-17.79-1.21-35.39-3.56-52.86-6.51
					c-94.2-15.93-172.6-51.32-245.31-105.45c-51.54-38.37-97.78-84.13-131.13-135.31c-12.4-19.03-23.67-38.56-32.67-58.96
					c-8.41-19.07-31.48-24.09-47.39-16.06c-14.03,7.09-19.56,20.62-13.45,35.54c14.88,36.35,22.88,73.72,20.9,112.32
					c-4.88,95.52-45.51,170.66-143.42,218.74c-29.92,14.69-62.78,22.64-96.81,26.66C155.51,1701.29,139.92,1702.96,124.17,1701.62z"
					/>
				<path class="st11" d="M163.16,1331.1c-0.81,25.87,5.35,50.7,15.23,74.81c6.26,15.27,9.64,30.67,8.53,46.82
					c-0.19,2.72-0.1,5.55-0.93,8.13c-1.91,5.97-7.81,8.99-14.45,7.82c-6.09-1.07-11.22-6.37-9.85-11.98
					c3.57-14.54-1.28-27.87-6.54-41.21c-25.84-65.5-23.66-130.31,12.02-192.24c43.99-76.35,115.71-122.31,213.94-134.27
					c92.96-11.32,173.11,13.24,239.94,69.85c25.74,21.8,44.99,47.82,58.71,76.78c18.94,40,44.84,76.09,80.57,106.58
					c41.58,35.48,91.26,57.65,148.37,67.56c3.08,0.53,6.22,0.97,9.16,1.86c7.75,2.34,11.15,7.38,8.43,13.64
					c-2.41,5.54-6.78,7.79-14.64,6.76c-32.99-4.34-64.13-13.37-93.56-26.7c-75.56-34.23-125.54-88.27-158.33-155.24
					c-31.69-64.71-84.03-110.91-162.3-131.54c-93.07-24.54-177.29-8.3-250.12,47.92c-47.36,36.56-73.42,83.33-82.39,137.39
					C163.46,1312.81,163.71,1322,163.16,1331.1z"/>
				<linearGradient id="SVGID_14_" gradientUnits="userSpaceOnUse" x1="86.9777" y1="1530.2983" x2="926.8135" y2="1530.2983">
					<stop  offset="0" style="stop-color:#0E3248"/>
					<stop  offset="1" style="stop-color:#1C786A"/>
				</linearGradient>
				<path class="st14" d="M462.86,1426.27c-2.26-3.03-7.11-1.49-7.19,2.29c-0.4,17.26,0.92,33.76-1.15,50.21
					c-8.56,68.15-32.57,128.11-88.34,177.76c-53.45,47.59-118.76,73.22-194.2,81.71c-22.6,2.54-45.07,2.05-67.63,2.47
					c-1.58,0.03-3.18,0.12-4.74-0.03c-8.39-0.84-12.81-4.82-12.63-11.28c0.19-6.58,4.44-10.14,13.65-10.03
					c16.32,0.19,32.62,0.5,48.92-0.69c73.99-5.42,139.74-27.11,193.43-72.95c55.5-47.39,79.07-105.36,86.88-172.01
					c5.4-46.1-2.26-90.49-19.53-133.97c-1.02-2.56-2.3-5.14-2.63-7.79c-0.7-5.54,1.43-10.03,8.26-11.55
					c6.1-1.36,11.73-0.52,14.98,4.7c2.73,4.39,4.89,9.05,7.17,13.64c26.76,53.95,67.72,102.73,112.94,146.58
					c76.4,74.07,165.32,122.93,275.92,147.95c26.34,5.96,53.29,9.9,80.49,12.06c3.65,0.29,7.43,0.43,10.87,1.37
					c7.29,1.99,9.25,6.98,8.22,13.02c-0.95,5.63-5.44,6.87-11.39,7.13c-14.32,0.63-28.29-1.71-42.24-3.61
					c-58.33-7.95-114.24-22.83-167.26-45.48c-80.3-34.3-185.29-114.43-239.67-186.66C464.89,1429.62,464.07,1427.89,462.86,1426.27z
					"/>
				<linearGradient id="SVGID_15_" gradientUnits="userSpaceOnUse" x1="96.6643" y1="1634.8949" x2="925.7621" y2="1634.8949">
					<stop  offset="0" style="stop-color:#0E3248"/>
					<stop  offset="1" style="stop-color:#1C786A"/>
				</linearGradient>
				<path class="st15" d="M501.55,1529.34c-2.24-1.98-5.72-1.12-6.59,1.74c-10.81,35.6-26.36,69.79-49.56,101.39
					c-32.22,43.88-73.97,78.93-126.03,104.6c-42.85,21.13-94.1,33.47-142.96,39.64c-19.82,2.5-39.81,0.44-59.45,4.03
					c-4.78,0.87-10.26-1.06-15.4-1.76c-6.11-0.84-4.09-4.64-4.79-9.34c-0.76-5.07,2.75-8.44,8.09-10.48
					c5.59-2.15,11.44-1.24,17.14-1.14c48.94,0.84,96.03-6.81,141.57-22.29c77.05-26.19,134.11-71.81,173.45-134.33
					c19.47-30.95,32.56-63.99,38.75-98.94c1.02-5.76,3.06-10.68,9.85-12.9c7.57-2.47,11.67,2.07,15.91,6.2
					c14.3,13.94,28.53,27.93,43.97,40.97c88.99,75.14,189.59,122.23,311.78,141.55c16.5,2.61,33.09,4.7,49.85,5.74
					c2.61,0.16,5.29,0.27,7.78,0.86c8.69,2.06,11.87,6.04,10.57,12.81c-1.09,5.66-7.23,9.31-15.34,8.58
					c-27.58-2.48-55.01-5.79-82.14-10.91c-103.12-19.43-189.43-59.29-269.71-118.4c-20.08-14.78-38.03-31.51-56.7-47.58
					C501.57,1529.36,501.56,1529.35,501.55,1529.34z"/>
				<linearGradient id="SVGID_16_" gradientUnits="userSpaceOnUse" x1="109.6403" y1="1693.494" x2="919.3716" y2="1693.494">
					<stop  offset="0" style="stop-color:#0E3248"/>
					<stop  offset="1" style="stop-color:#1C786A"/>
				</linearGradient>
				<path class="st16" d="M521,1600.26c-1.95-1.47-4.75-0.86-5.92,1.29c-12.05,22.16-24.22,43.2-39.82,62.55
					c-61.66,76.45-150.16,124.56-255.16,145.21c-28.23,5.55-56.89,7.16-85.44,9.99c-4.16,0.41-8.46,0.34-12.62-0.09
					c-7.85-0.81-13.14-5.76-12.31-11.84c0.85-6.26,5.05-9.04,12.83-9.44c40.32-2.08,80.42-5.39,119.33-15.81
					c98.88-26.46,179.41-78.09,230.75-156.1c9.92-15.08,18.05-30.81,25.4-46.9c6.22-13.62,14.75-15.28,27.05-5.36
					c49.56,39.98,99.69,72.93,160.93,97.94c58.16,23.76,119.13,39.85,182.95,47.45c12.45,1.48,25,2.51,37.36,4.42
					c10.19,1.58,13.98,5.82,12.83,12.45c-1.01,5.87-8.59,10.17-16.87,9.18c-44.55-5.33-88.82-11.52-132.17-22.6
					c-87.86-22.46-161.47-59.46-232.1-109.66C532.6,1609.07,527.32,1605.03,521,1600.26z"/>
				<linearGradient id="SVGID_17_" gradientUnits="userSpaceOnUse" x1="132.4881" y1="1744.3746" x2="907.9243" y2="1744.3746">
					<stop  offset="0" style="stop-color:#0E3248"/>
					<stop  offset="1" style="stop-color:#1C786A"/>
				</linearGradient>
				<path class="st17" d="M534.09,1660.75c-1.57-0.4-3.22,0.24-4.17,1.55c-13.92,19.3-28.32,37.88-45.09,55
					c-70.33,71.77-164.63,114.96-270.9,132.89c-21.1,3.56-42.52,4.47-63.66,7.44c-4.3,0.6-8.5-0.17-12.04-2.37
					c-4.08-2.54-6.44-6.12-5.57-10.59c0.85-4.39,3.69-7.59,9.13-8.17c16.11-1.72,32.29-3,48.34-5.04
					c98.95-12.53,188.84-49.29,258.34-111.77c26.01-23.38,47.51-49.79,65.67-78.22c8.13-12.73,13.5-13.6,26.94-4.57
					c78.59,52.84,160.91,90,257.71,110.24c30.09,6.29,60.49,11.05,91.34,13.53c2.58,0.21,5.23,0.43,7.66,1.12
					c8.42,2.37,11.51,6.73,9.55,13.31c-1.93,6.49-7.82,8.57-14.43,7.85c-21.25-2.33-42.57-4.55-63.61-7.96
					c-71.6-11.6-134.65-32.08-199.01-61.77c-30.19-13.93-58.89-29.87-86.62-47.17C540.88,1664.31,538.51,1661.89,534.09,1660.75z"/>
				<linearGradient id="SVGID_18_" gradientUnits="userSpaceOnUse" x1="162.3279" y1="1791.3884" x2="890.9102" y2="1791.3884">
					<stop  offset="0" style="stop-color:#0E3248"/>
					<stop  offset="1" style="stop-color:#1C786A"/>
				</linearGradient>
				<path class="st18" d="M545.03,1715.83c-1.2-0.02-2.36,0.48-3.14,1.39c-16.1,18.75-33.4,36.85-52.82,53.46
					c-68.24,58.41-154.5,96.04-247.77,114.46c-21.44,4.23-43.1,7.74-65.1,8.79c-10.87,0.52-16.46-6.72-12.71-15.28
					c2.56-5.82,8.77-5.97,14.46-6.5c22.43-2.09,44.55-5.48,66.48-10.14c115.58-24.57,212.53-79.29,281.09-163.21
					c9.96-12.19,17.4-12.58,30.75-4.67c82.9,49.16,169.11,81.1,267.6,97.64c16.43,2.76,33.12,4.36,49.69,6.51
					c2.6,0.34,5.27,0.51,7.78,1.12c7.16,1.75,10.52,6.14,9.34,12.24c-1.12,5.76-5.07,8.42-12,8.55
					c-12.19,0.24-24.05-1.95-35.88-3.63c-105.27-14.94-198.43-46.11-287.96-96.88C552.19,1718.19,549.87,1715.92,545.03,1715.83z"/>
				<linearGradient id="SVGID_19_" gradientUnits="userSpaceOnUse" x1="198.309" y1="1834.9707" x2="868.8811" y2="1834.9707">
					<stop  offset="0" style="stop-color:#0E3248"/>
					<stop  offset="1" style="stop-color:#1C786A"/>
				</linearGradient>
				<path class="st19" d="M557.88,1767.31c-1.58-0.85-3.52-0.56-4.76,0.72c-11.33,11.71-27.98,21.79-39.93,32.05
					c-65.09,55.88-142.08,93.97-230.03,115.88c-20.66,5.15-41.7,8.65-62.64,12.58c-12.44,2.33-20.28-0.8-21.9-7.88
					c-1.63-7.15,3.25-11.15,17.16-13.37c65.53-10.47,127.54-29.03,184.84-58.97c50.45-26.36,99.19-59.35,136.71-98.59
					c10.38-10.86,13.49-11.62,27.69-4.23c50.06,26.06,97.78,47.11,153.25,62.79c42.39,11.98,85.63,21.25,129.96,26.24
					c3.1,0.35,6.18,1,9.2,1.73c9.44,2.29,12.88,6.62,10.91,13.53c-1.66,5.83-7.59,8.85-16.19,7.72
					c-12.39-1.62-24.77-3.34-37.08-5.37c-82.98-13.66-161.89-37.4-236.26-72.21C570.45,1776.03,566.37,1771.87,557.88,1767.31z"/>
				<path class="st11" d="M559.67,1814.95c-46.19,42.39-98.75,76.12-157.5,102.39c-44.9,20.08-92.49,34.21-141.73,44.01
					c-9.63,1.92-17.13-1.94-18.18-8.79c-0.87-5.67,1.94-9.88,8.32-11.64c4.98-1.38,10.19-2.13,15.28-3.21
					c91.53-19.36,172.57-56.11,242.92-110.37c11.78-9.09,22.41-19.3,33.68-28.9c11.07-9.42,13.49-9.66,27.4-3.17
					c75.37,35.15,155.29,59.2,239.19,73.5c6.68,1.14,13.54,1.19,20.15,3.05c9.82,2.76,12.69,5.99,10.94,13.48
					c-1.3,5.57-7.72,9.07-16.03,7.81c-14.93-2.27-29.81-4.86-44.61-7.66c-74.61-14.14-145.77-36.56-213.46-67.21
					C564.16,1817.39,562.41,1816.37,559.67,1814.95z"/>
				<path class="st11" d="M442.74,1047.81c70.06,4.97,131.82,25.51,185.34,63.67c45.19,32.22,76.22,73.02,98.85,119.61
					c22.89,47.14,58.2,86.25,109.36,113.34c20.27,10.73,41.78,19.06,65.02,23.81c5.61,1.15,11.27,2.23,16.68,3.92
					c6.37,1.98,8.66,6.47,7.42,12.06c-1.29,5.79-6.14,8.47-12.49,8.39c-4.1-0.05-8.18-1.39-12.25-2.2
					c-74.68-14.94-129.88-53.02-171.01-107.9c-13.79-18.4-23.99-38.33-34.41-58.22c-40.56-77.46-109.02-126.47-203.6-148.06
					c-15.57-3.56-31.65-6.26-48.01-6.53c-5.83-0.1-11.73-0.53-14.26-6.44C425.47,1054.15,431.68,1047.53,442.74,1047.81z"/>
				<path class="st11" d="M567.45,1863.15c-46.78,38.21-98.46,69.05-155.4,93.19c-30.61,12.98-62.28,23.73-94.98,32.15
					c-6.12,1.58-12.58,3.22-17.94-0.64c-7.5-5.4-6.84-15.34,5.48-18.88c13.93-4.01,28.01-7.65,41.75-12.11
					c75.6-24.51,143.22-60.23,201.76-108.57c11.89-9.82,15.57-11.79,33.01-4.44c63.86,26.92,130.48,47.14,200.27,59.18
					c4.11,0.71,8.22,1.51,12.25,2.49c10.34,2.52,13,5.6,11.74,13.28c-1.08,6.63-5.99,9.4-16.86,7.85
					c-12.37-1.77-24.59-4.4-36.8-6.93c-61.86-12.8-121.56-30.88-178.64-55.28C571.72,1863.86,570.09,1863.74,567.45,1863.15z"/>
				<path class="st11" d="M903.94,1351.1c-4.72-1.25-10.78-2.63-16.67-4.44c-60.56-18.68-102.35-55.4-132.08-103.55
					c-12.62-20.43-21.43-42.48-34.8-62.6c-26.64-40.08-62.38-72.93-106.15-99.29c-11.76-7.08-14.89-13.37-9.55-19.5
					c4.31-4.94,13.41-4.44,23.97,1.8c59.62,35.21,103.96,81.46,132.45,138.9c13.73,27.68,29.78,53.92,53.64,76.33
					c24.34,22.86,52.73,39.9,87.07,49.27c2.98,0.81,6.14,1.27,8.98,2.34c6.42,2.41,9.81,8.1,8,13.3
					C916.81,1349.39,911.62,1351.04,903.94,1351.1z"/>
				<path class="st11" d="M747.28,1958.75c-3.1-0.59-8.76-1.52-14.32-2.76c-50.24-11.22-99.4-25.23-146.84-43.48
					c-7.38-2.84-12.19-2.3-18.26,2.21c-22.35,16.6-46.18,31.54-71.08,45.16c-11.78,6.45-20.44,6.06-24.63-0.77
					c-3.88-6.32-0.5-11.72,11.42-18.07c26.45-14.09,51.34-30.09,74.35-48.07c9.69-7.57,18.27-8.58,29.79-3.91
					c50.98,20.67,104.25,35.7,158.91,47.14c2.55,0.53,5.14,0.96,7.6,1.71c6.47,1.97,11.34,7.76,9.6,12.25
					C761.69,1955.72,757.53,1959.68,747.28,1958.75z"/>
				<path class="st11" d="M583.61,1954.22c-27.51,18.36-55.42,35.35-85.07,50.06c-15.01,7.44-30.49,14.17-45.72,21.29
					c-3.28,1.53-6.48,2.8-10.39,2.72c-5.33-0.11-8.86-2.25-11.37-6.16c-2.8-4.36-0.7-7.85,2.3-11.26c2.68-3.03,6.66-4.38,10.43-5.95
					c44.19-18.44,85.18-41.31,123.35-67.88c8.98-6.25,16.31-6.69,27.07-2.79c33.82,12.26,68.52,22.59,103.79,31.38
					c11.82,2.94,14.67,6.15,13.69,13.69c-0.61,4.69-3.2,7.57-8.89,7.82c-6.36,0.28-12.37-0.76-18.56-2.35
					C650.15,1976.02,616.64,1965.77,583.61,1954.22z"/>
				<path class="st11" d="M112.17,1447.12c2.24,0.24,4.24-1.42,4.42-3.67c0.36-4.68-0.72-8.72-2.46-12.74
					c-17.55-40.67-23.6-82.69-19.55-125.89c0.08-0.91-0.04-1.83,0.09-2.73c1.18-7.88,6.57-13.17,13.31-13.09
					c7.67,0.09,12.6,5.67,11.59,14.58c-3.7,32.85-0.41,65.13,9.71,96.9c2.23,6.98,5.17,13.8,7.83,20.67
					c4.21,10.86,7.04,21.83,4.65,33.39c-2.24,10.82-5.94,13.58-18.75,14.34c-12.69,0.75-25-2.04-37.53-2.76
					c-6.96-0.4-11.52-4.11-10.95-10.98c0.55-6.59,5.1-10.49,13.69-10.19C95.96,1445.21,103.65,1446.22,112.17,1447.12z"/>
				<path class="st11" d="M818,1219.68c0.82,4.64-1.73,7.8-6.2,10.04c-5.41,2.71-10.23,1.2-14.42-2c-4.03-3.07-5.94-7.46-7.95-11.63
					c-13.94-28.93-29.16-57.24-50.69-82.71c-5.44-6.43-4.04-13.37,1.92-16.9c6.34-3.75,12.6-2.53,18.59,4.44
					c17.6,20.48,31.42,42.86,43.35,66.15c4.25,8.29,8.5,16.58,12.78,24.87C816.67,1214.42,818.61,1216.7,818,1219.68z"/>
				<path class="st11" d="M591.02,1998.67c-14.84,8.76-29.48,17.48-44.23,26.06c-3.45,2.01-7.1,3.91-10.94,5.27
					c-7.2,2.55-13.75,0.93-16.29-4.06c-2.81-5.51-2.17-10.8,3.98-14.46c9.49-5.64,19.28-10.89,28.79-16.5
					c7.77-4.59,15.51-9.24,22.87-14.29c7.29-5,14.79-5.82,23.38-3.02c13.19,4.3,26.55,8.2,39.77,12.43
					c9.05,2.89,13.45,8.31,11.67,13.84c-2.12,6.58-9.54,9.68-19.27,7.01C617.86,2007.39,605.23,2003.1,591.02,1998.67z"/>
				<path class="st11" d="M451.07,1959.65c6.73,0.06,10.9,3.22,12.46,8.61c1.42,4.9-0.53,8.76-5.95,11.42
					c-26.53,13.03-54.41,23.51-82.83,32.94c-8.11,2.69-14.64,0.14-17.06-5.46c-2.78-6.42,0.03-12.03,8.81-15.11
					c26.26-9.2,52.5-18.39,77.05-30.78C445.95,1960.06,448.38,1959.61,451.07,1959.65z"/>
				<path class="st11" d="M830.85,1242.3c4.85-0.72,7.36,1.71,9.89,4c16.63,15.11,34.01,29.28,56.13,38.55
					c7.71,3.23,9.14,9.28,5.76,14.85c-3.37,5.55-9.53,7.54-17.46,4.27c-8.44-3.48-16.45-7.83-24.34-12.21
					c-14.68-8.16-25.71-19.86-38.05-30.27c-4.51-3.81-6.09-8.81-2.83-13.61C822.25,1244.48,825.58,1240.97,830.85,1242.3z"/>
				<path class="st11" d="M121.63,1508.19c-11.09,0.33-21.74-2.47-32.64-3.35c-6.76-0.55-9.31-5.11-9.47-10.74
					c-0.18-6.21,3.95-9.16,10.37-9.8c4.11-0.41,8.43-0.35,12.52,0.23c18.28,2.58,31.04,3.58,47.94-5.43
					c6.85-3.65,19.16-1.46,22.88,3.65c4.33,5.95,0.66,10.57-4.09,14.34c-8.47,6.72-19.62,8.11-30.31,9.96
					C133.24,1508.02,127.37,1507.85,121.63,1508.19z"/>
			</g>
		</g>
	</g>
</g>
</svg>
