<svg width="617" height="620" viewBox="0 0 617 620" fill="none" xmlns="http://www.w3.org/2000/svg">
        <g id="Sensor_Huella 1">
            <g id="Sensor Huella">
                <g id="Bordes">
                    <path id="Vector"
                        d="M94.3537 176.272C95.7733 176.272 97.1358 175.611 98.1397 174.434C99.1435 173.259 99.7074 171.663 99.7074 170V88.5424H169.612C171.032 88.5424 172.393 87.8817 173.397 86.7056C174.402 85.5296 174.966 83.9344 174.966 82.2712C174.966 80.608 174.402 79.0129 173.397 77.8368C172.393 76.6607 171.032 76 169.612 76H94.3537C91.397 76 89 78.3799 89 81.8427V170C89 171.663 89.5638 173.259 90.5677 174.434C91.5716 175.611 92.9341 176.272 94.3537 176.272Z"
                        fill="black" />
                    <path id="Vector 2"
                        d="M522.646 76H447.388C445.968 76 444.607 76.6607 443.603 77.8368C442.598 79.0129 442.034 80.608 442.034 82.2712C442.034 83.9344 442.598 85.5296 443.603 86.7056C444.607 87.8817 445.968 88.5424 447.388 88.5424H517.293V170C517.293 171.663 517.856 173.259 518.86 174.434C519.864 175.611 521.227 176.272 522.646 176.272C524.066 176.272 525.428 175.611 526.432 174.434C527.436 173.259 528 171.663 528 170V81.8427C528 78.3799 525.603 76 522.646 76Z"
                        fill="black" />
                    <path id="Vector 3"
                        d="M94.3537 544.25H169.612C171.032 544.25 172.393 543.589 173.397 542.413C174.402 541.237 174.966 539.642 174.966 537.979C174.966 536.316 174.402 534.72 173.397 533.545C172.393 532.368 171.032 531.707 169.612 531.707H99.7074V450.247C99.7074 448.584 99.1435 446.988 98.1397 445.813C97.1358 444.636 95.7733 443.975 94.3537 443.975C92.9341 443.975 91.5716 444.636 90.5677 445.813C89.5638 446.988 89 448.584 89 450.247V538.403C89 541.867 91.397 544.25 94.3537 544.25Z"
                        fill="black" />
                    <path id="Vector 4"
                        d="M522.646 443.975C521.227 443.975 519.864 444.636 518.86 445.813C517.856 446.988 517.293 448.584 517.293 450.247V531.707H447.388C445.968 531.707 444.607 532.368 443.603 533.545C442.598 534.72 442.034 536.316 442.034 537.979C442.034 539.642 442.598 541.237 443.603 542.413C444.607 543.589 445.968 544.25 447.388 544.25H522.646C525.603 544.25 528 541.867 528 538.403V450.247C528 448.584 527.436 446.988 526.432 445.813C525.428 444.636 524.066 443.975 522.646 443.975Z"
                        fill="black" />
                </g>
            </g>
            <g id="fingerPrint">
                <g id="Group">
                    <g id="Group_2">
                        <g id="stylesHere">
                            <path id="Vector_2"
                                d="M240.917 438.246C229.906 416.872 224.082 390.671 224.082 362.303C224.082 314.629 262.211 275.82 308.985 275.82C355.85 275.82 393.888 314.63 393.888 362.303C393.888 367.721 397.983 372.153 402.988 372.153C407.994 372.153 412.089 367.721 412.089 362.303C412.089 303.695 365.86 256.12 308.986 256.12C252.112 256.12 205.882 303.794 205.882 362.303C205.882 394.02 212.525 423.668 225.083 447.899C237.368 471.638 245.922 482.571 261.665 499.808C263.485 501.778 265.76 502.763 268.126 502.763C270.401 502.763 272.767 501.877 274.405 499.808C278.045 496.066 278.045 489.761 274.496 485.92C260.482 470.654 252.656 460.902 240.917 438.246Z"
                                fill="black" />
                            <path id="Vector_3"
                                d="M207.793 160.477C239.006 142.057 273.04 132.7 309.167 132.7C345.384 132.7 375.687 141.072 410.541 160.575C411.906 161.265 413.271 161.659 414.727 161.659C418.003 161.659 421.188 159.689 422.826 156.34C425.101 151.513 423.372 145.505 418.913 143.042C381.785 122.259 347.933 113 309.167 113C270.037 113 233 123.146 199.057 143.141C194.597 145.8 193.051 151.71 195.416 156.537C197.873 161.363 203.333 163.038 207.793 160.477Z"
                                fill="black" />
                            <path id="Vector_4"
                                d="M308.348 208.151C249.653 208.151 195.963 243.71 171.666 298.673C163.385 317.289 159.199 338.762 159.199 362.402C159.199 388.997 163.567 414.41 172.485 440.315C174.305 445.437 179.492 447.998 184.224 446.126C188.956 444.156 191.322 438.542 189.593 433.42C178.763 401.999 177.49 377.768 177.49 362.402C177.49 341.717 181.039 323.1 188.137 307.143C209.431 258.878 256.66 227.753 308.438 227.753C381.147 227.753 440.297 288.133 440.297 362.402C440.297 383.579 423.28 400.718 402.441 400.718C381.603 400.718 364.586 383.48 364.586 362.402C364.586 330.389 339.47 304.385 308.529 304.385C277.589 304.385 252.473 330.389 252.473 362.402C252.473 401.309 266.488 437.853 291.877 465.236C311.532 486.413 330.461 498.036 359.489 506.606C360.217 506.901 361.036 507 361.855 507C365.859 507 369.499 504.144 370.591 499.809C371.956 494.589 369.044 489.171 364.221 487.694C338.559 480.11 321.814 469.865 304.615 451.347C282.684 427.707 270.582 396.089 270.582 362.501C270.582 341.323 287.599 324.184 308.437 324.184C329.276 324.184 346.293 341.422 346.293 362.501C346.293 394.513 371.5 420.517 402.349 420.517C433.198 420.517 458.406 394.513 458.406 362.501C458.406 277.397 391.067 208.151 308.348 208.151Z"
                                fill="black" />
                            <path id="Vector_5"
                                d="M471.146 248.93C453.037 221.547 430.105 200.074 402.896 184.905C345.566 152.991 272.402 153.09 215.164 185.102C187.864 200.369 164.84 222.039 146.822 249.62C143.911 254.052 144.911 260.159 149.006 263.312C150.644 264.494 152.464 265.085 154.285 265.085C157.106 265.085 159.926 263.706 161.747 261.046C178.036 236.028 198.875 216.426 223.536 202.636C275.679 173.48 342.382 173.382 394.616 202.439C419.186 216.032 439.934 235.535 456.314 260.357C459.225 264.79 464.958 265.775 469.053 262.623C473.148 259.469 474.059 253.362 471.146 248.93Z"
                                fill="black" />
                            <path id="Vector_6"
                                d="M417.548 444.747C410.268 446.126 402.897 446.619 398.529 446.619C380.329 446.619 365.223 441.99 352.392 432.534C330.279 416.282 317.084 390.081 317.084 362.402C317.084 356.984 312.989 352.551 307.984 352.551C302.978 352.551 298.883 356.984 298.883 362.402C298.883 396.68 315.082 428.988 342.108 448.884C357.851 460.409 376.871 466.319 398.528 466.319C401.076 466.319 410.085 466.22 420.732 464.152C425.646 463.166 429.014 458.045 428.103 452.726C427.193 447.407 422.462 443.763 417.548 444.747Z"
                                fill="black" />
                        </g>
                    </g>
                </g>
            </g>
        </g>
    </svg>
