<svg id="Capa_1" data-name="Capa 1" xmlns="http://www.w3.org/2000/svg" xmlns:xlink="http://www.w3.org/1999/xlink" viewBox="0 0 2056.53 2027.35"><defs><style>.cls-1{fill:none;}.cls-2{fill:url(#Degradado_sin_nombre_19);}.cls-3{clip-path:url(#clip-path);}.cls-4{fill:#fff;}.cls-5{fill:#0e3248;}.cls-6{fill:#373636;}</style><linearGradient id="Degradado_sin_nombre_19" x1="334.35" y1="1013.68" x2="1543.78" y2="1013.68" gradientUnits="userSpaceOnUse"><stop offset="0" stop-color="#0e3248"/><stop offset="1" stop-color="#1c786a"/></linearGradient><clipPath id="clip-path" transform="translate(-591.64 -517.03)"><path class="cls-1" d="M1417.47,1051H1170c-24.44,0-44.26,18.42-44.26,41.15v877.14c0,22.73,19.82,41.15,44.26,41.15h260.49c302.1,0,505.15-154.11,505.15-483.88S1732.61,1051,1417.47,1051Zm-14.16,784.8h0c-24.45,0-44.27-18.42-44.27-41.15V1266.78c0-22.73,19.82-41.16,44.27-41.16h0c175,0,293.29,71.47,293.29,300.93S1578.33,1835.79,1403.31,1835.79Z"/></clipPath></defs><rect class="cls-2" x="334.35" y="408.96" width="1209.43" height="1209.43" rx="78.22"/><g class="cls-3"><polygon class="cls-4" points="2056.53 2027.35 15.61 2027.35 0 0 2040.93 0 2056.53 2027.35"/><path class="cls-5" d="M1156.38,1165.89c-.09,29.82,7.1,60.72,18.84,90.92,15.75,40.54,24.88,82.53,23.14,125.59-2.53,62.48-20.13,120.33-65,169.43-44.67,48.92-102.57,71.9-169.41,79-26.75,2.83-53.54,2.22-80.29,0-8-.67-16.2-.71-23.52-5-8.88-5.19-12-12.84-9.88-21.63s8.34-14.42,19.4-14c24.38.83,48.8,2.08,73.17,1.62,47.22-.88,90.66-13.41,128.51-40.29,44.56-31.65,67.27-75.44,78.82-125.16,11.79-50.75,4.87-100.3-13.52-148.45-13.7-35.88-23.17-72.61-23.54-110.33-.55-55.29,12.86-108.34,43.08-156.51,50.4-80.33,124.22-132.23,223-149.76,110.94-19.7,208.17,7.07,292,78.32,47.72,40.55,70.75,94,98.06,146.07,100.68,192,257,320.73,487,363.44,13.26,2.46,26.7,4.05,39.92,6.65,15.33,3,19.87,9.22,18.44,22.92-1.36,13.13-10.27,16.49-22.69,15.87-28-1.39-55.36-6.93-82.34-13.4-212.14-50.9-363.13-172.27-464.75-350-13.54-23.68-24.66-48.54-36.88-72.84-47-93.46-123.72-149.73-236.32-161.44-158.43-16.47-289.43,94-311,221.79C1158.07,1133.6,1157.34,1148.59,1156.38,1165.89Z" transform="translate(-591.64 -517.03)"/><path class="cls-5" d="M1232.18,1376.32c.74-48.26-11.09-90.91-26.19-133.31-25.8-72.48-19.86-142.58,25.14-207.55,45.44-65.6,110.14-101.24,194.81-107.26,116.73-8.3,214.16,56.52,255.55,150.62,57.31,130.3,145.07,239.53,267.45,323.25,99.29,67.93,210.73,108.93,333.09,124a113.1,113.1,0,0,1,15.85,3c14.7,4,19.38,11,16.46,23.74-2.22,9.72-12.46,16.61-24.38,15-51.67-6.93-102.65-16.32-152.57-31.28-117.5-35.22-219.62-93.92-306.5-174.58-82-76.14-144.89-164.92-188.69-264.89-20.9-47.68-53.6-85-103.38-108.78-105.85-50.6-243.06-9.92-290.73,104.12-18.58,44.47-20.15,89.34-2,134.79,21.59,54,32.35,110,28.51,167.77-7,105.08-49.56,193.54-144.52,255.41-41.91,27.29-89.48,43.23-140.25,49.8-39.3,5.09-78.75,8.17-118.33,1.39-15.91-2.73-21.9-8-21.65-20.71.21-10.86,5.79-17.81,17.64-18.57a152.06,152.06,0,0,1,27.07.67c67.53,7.74,131.75-4,190.5-34.23,81.25-41.79,124-110,141.44-193.1C1230.85,1415,1233.13,1394.16,1232.18,1376.32Z" transform="translate(-591.64 -517.03)"/><path class="cls-6" d="M1433.92,783.43c121.13-.08,217.14,37.45,297.25,109.15,45.5,40.72,74.16,91.92,99.45,145.55,55.43,117.54,139.32,213.25,259.81,278.87,61.42,33.46,128.13,53.41,197.71,65.74,1.76.31,3.65.06,5.39.42,17.29,3.55,22.8,9.75,21.07,23.57-1.61,12.81-9.46,17.94-28.34,15.42a622.49,622.49,0,0,1-94.65-20.08c-162.82-48.34-281.36-146.42-366.14-282.28-17.71-28.38-31.7-58.4-46.12-88.27-56.9-117.82-153.3-187.36-291.73-205.21-104.53-13.47-197.68,13.91-276.77,75.68-115.57,90.27-162.51,235-111.85,368.73,15.27,40.3,22.47,81,20.24,123.42-4.84,92.37-68.13,163.78-178.7,165.85-24.24.45-48.81,2.74-72.67-4.38-15.23-4.54-20.41-11-17.62-23.07,2.58-11.07,12.61-17.5,26.82-15.31,33.27,5.13,66.19,6.07,99.27-1.74,56.41-13.32,85.41-49.77,97.62-99.75,10.07-41.24,3.06-81.52-12.24-120.76-18.35-47.1-27.85-95.62-25.06-145.7,5.23-93.83,40.31-176.28,109.78-245.56C1206.27,844,1278.87,806.06,1365,790.38,1390.68,785.69,1416.58,782.19,1433.92,783.43Z" transform="translate(-591.64 -517.03)"/><path class="cls-5" d="M1308,1377.93c2.67-56.28-9.75-107.62-28.69-157.83-37-98.08,20.94-197.38,130.06-218.19,83.87-16,166.45,24.73,200.14,103.51,37.33,87.3,89.7,166.57,156.23,237.12,124.32,131.83,278.62,216.16,464.84,248.28,21.23,3.66,42.61,6.55,64,9.5,11,1.52,18.51,6,20,17,2,14.31-4.62,22.13-21.42,22-28-.15-55.56-5.4-82.78-10.64-128.13-24.67-245.08-72.74-349.11-147.08-105.52-75.4-187.88-168.79-249.93-278q-26-45.65-47.65-93.18c-31.43-68.4-130.83-96.74-200.56-46.4-43.2,31.18-64.11,86.6-45.86,134.47,20.33,53.34,33.51,107.77,34.89,164.39,4.38,180.66-100.7,355.62-318.24,402.73-49.56,10.73-100.12,11.7-150.74,10.1-5.27-.16-10.43-2.43-15.73-3-13.58-1.61-18.66-9.19-17.37-21,1.24-11.43,11.59-20.19,24.92-17.7,19,3.55,37.82,2.93,56.67,2.5,89.89-2.06,172.4-23.92,243-78.34,62.82-48.42,100.87-110.77,121.42-183.15C1305.3,1442.42,1310.28,1409.21,1308,1377.93Z" transform="translate(-591.64 -517.03)"/><path class="cls-5" d="M926.31,1846.68c-16.28,0-32.58.5-48.82-.14-16.75-.67-25.44-8-25.68-19.92-.25-12.83,7.3-18.46,25.23-19.25,24.35-1.06,48.55,1.61,73.05.48,104.16-4.8,198.4-34.16,278.16-97.29,74.53-59,120.83-135,144-223,25.59-97.21,16.93-192.78-18.69-286.59-12.12-31.93-12-62.11,8.92-91.14,39.53-55,131.52-52.49,165.64,5.56,16,27.16,28,56.3,42.85,84.05,47.91,89.42,109.43,170.06,186.43,239.7,130.18,117.72,284.35,193.44,463.79,223.11,22.15,3.67,44.58,5.79,66.77,9.27,9.41,1.48,21,1,24.94,11.89,6.35,17.59-3.38,29.74-21.51,28.42a860.8,860.8,0,0,1-90.85-12c-161.92-29.39-305.32-94.66-430.29-194.49-88.6-70.77-159.42-155.18-216.74-249.57-21.32-35.09-40.69-71.11-56.16-108.74-14.46-35.17-54.11-44.44-81.45-29.62-24.12,13.07-33.61,38-23.12,65.55,25.57,67,39.32,136,35.93,207.17-8.39,176.18-86.87,314.77-255.17,403.45-51.43,27.11-107.91,41.76-166.4,49.18C980.36,1846.11,953.47,1849.19,926.31,1846.68Z" transform="translate(-591.64 -517.03)"/><path class="cls-6" d="M1002.25,1163.3c-1.4,47.72,9.18,93.51,26.18,138,10.76,28.16,16.57,56.58,14.66,86.35-.32,5-.18,10.23-1.6,15-3.28,11-13.43,16.58-24.84,14.43-10.46-2-19.29-11.75-16.92-22.1,6.13-26.81-2.2-51.41-11.25-76-44.42-120.8-40.66-240.35,20.67-354.58,75.61-140.82,198.89-225.59,367.73-247.65,159.79-20.88,297.55,24.42,412.42,128.83,44.24,40.21,77.33,88.19,100.91,141.62,32.56,73.79,77.07,140.35,138.48,196.58,71.48,65.44,156.86,106.32,255,124.61,5.29,1,10.68,1.79,15.75,3.43,13.31,4.33,19.16,13.62,14.48,25.15-4.14,10.22-11.65,14.38-25.17,12.47A537.92,537.92,0,0,1,2128,1300.15c-129.88-63.15-215.79-162.81-272.15-286.33-54.47-119.36-144.44-204.57-279-242.62-160-45.26-304.74-15.31-429.92,88.39-81.41,67.44-126.19,153.69-141.61,253.4C1002.76,1129.56,1003.19,1146.52,1002.25,1163.3Z" transform="translate(-591.64 -517.03)"/><path class="cls-5" d="M1505.46,1330.22c-1.83,36.54,1.61,71.06-2.41,105.44-14.71,125.7-64.64,236.29-160.49,327.87-91.88,87.79-204.14,135-333.8,150.71-38.84,4.7-77.48,3.79-116.26,4.56a65,65,0,0,1-8.14-.06c-14.43-1.56-22-8.9-21.7-20.8.32-12.14,7.63-18.7,23.46-18.5,28,.35,56.06.93,84.08-1.27,127.18-10,240.2-50,332.48-134.56,95.4-87.41,144.55-194.33,158-317.26,9.29-85-3.88-166.9-33.57-247.09-1.74-4.73-3.94-9.48-4.52-14.37-1.19-10.22,2.46-18.5,14.21-21.31,10.47-2.5,20.16-.95,25.75,8.68,4.69,8.09,8.4,16.69,12.31,25.15q69,149.27,185.49,270.36c131.32,136.62,292.8,226.75,482.9,272.88a917.25,917.25,0,0,0,138.35,22.25c6.27.54,12.76.79,18.69,2.53,12.53,3.67,15.89,12.87,14.14,24-1.64,10.38-9.35,12.66-19.58,13.15-24.62,1.17-48.63-3.15-72.6-6.66-100.26-14.67-196.36-42.12-287.49-83.89-172-78.85-307.55-195.47-412-344.29C1518.62,1341.81,1516.81,1333.67,1505.46,1330.22Z" transform="translate(-591.64 -517.03)"/><path class="cls-5" d="M1566.09,1524.25c-18.64,68.5-45.89,134.28-87.37,194.9-55.38,80.94-127.14,145.59-216.62,192.92-73.66,39-153.09,61.74-237.08,73.11-34.08,4.61-68.43.81-102.19,7.43-8.22,1.6-17.63-1.95-26.47-3.26-10.5-1.55-15.68-8.55-16.89-17.22-1.3-9.35,4.74-15.56,13.91-19.34,9.6-4,19.66-2.27,29.45-2.09,84.13,1.55,165.06-12.56,243.34-41.11,132.44-48.31,230.52-132.45,298.13-247.76,33.47-57.08,56-118,66.61-182.49,1.75-10.62,5.26-19.71,16.94-23.8,13-4.56,20.06,3.82,27.34,11.43,24.59,25.72,49,51.52,75.58,75.58q229.44,207.87,544.56,261.09a848,848,0,0,0,85.67,10.58c4.49.3,9.09.49,13.38,1.58,14.94,3.79,20.4,11.13,18.17,23.63-1.86,10.44-12.42,17.16-26.36,15.82-47.41-4.58-94.55-10.69-141.2-20.12-177.24-35.83-334.24-109.35-472.24-218.37-34.52-27.27-65.36-58.12-97.45-87.75C1572.92,1526.81,1571.91,1522.62,1566.09,1524.25Z" transform="translate(-591.64 -517.03)"/><path class="cls-5" d="M1602.28,1654.62c-22,43.64-43.78,85-72.24,122.88-106,141-249.45,229.73-429.92,267.83-48.53,10.25-97.79,13.21-146.87,18.42a101.47,101.47,0,0,1-21.69-.16c-13.5-1.5-22.59-10.63-21.16-21.84,1.46-11.54,8.68-16.68,22.05-17.42,69.3-3.83,138.23-9.94,205.12-29.15,170-48.81,299.72-144,388-287.93,17-27.81,31-56.82,43.66-86.49,10.7-25.12,25.35-28.19,46.49-9.88,85.19,73.73,180,134.51,285.26,180.64,100,43.81,204.77,73.5,314.47,87.51,21.41,2.74,43,4.63,64.22,8.16,17.52,2.91,24,10.74,22.06,23-1.74,10.83-14.76,18.77-29,16.94-76.58-9.83-152.67-21.25-227.17-41.68-151-41.43-286.19-109.67-407.59-202.26C1626.83,1674.66,1616.11,1665.7,1602.28,1654.62Z" transform="translate(-591.64 -517.03)"/><path class="cls-5" d="M1626.52,1770.43c-24.72,36.94-50.18,72.52-80,105.21-120.89,132.37-274.34,212-457,245.11-36.27,6.57-73.08,8.25-109.42,13.72a29,29,0,0,1-20.69-4.37c-7-4.69-11.07-11.29-9.57-19.54,1.47-8.09,6.34-14,15.69-15.07,27.69-3.18,55.49-5.54,83.09-9.28,170.07-23.11,315.93-90.92,435.4-206.15,44.7-43.12,81.65-91.83,112.88-144.27,14-23.48,23.2-25.09,46.3-8.42,135.08,97.46,285.22,166,451.62,203.33,51.72,11.61,104,20.37,157,25a64.8,64.8,0,0,1,13.17,2.06c14.47,4.37,19.78,12.42,16.42,24.55s-13.44,15.81-24.81,14.47c-36.53-4.29-73.17-8.4-109.34-14.68q-184.6-32.08-350.72-113.93c-51.89-25.69-101.22-55.09-148.88-87C1641.94,1777.29,1637.28,1771.71,1626.52,1770.43Z" transform="translate(-591.64 -517.03)"/><path class="cls-5" d="M1646.5,1873.07c-28.22,35.44-58.57,69.67-92.71,101-117.3,107.73-256.91,177.14-417.23,211.12-36.85,7.81-74.09,14.28-111.9,16.22-18.69,1-28.3-12.4-21.84-28.18,4.39-10.74,15.07-11,24.85-12a930.67,930.67,0,0,0,114.27-18.71c198.65-45.31,356.65-146.25,474.5-301,17.11-22.48,29.92-23.21,52.86-8.62,142.5,90.67,299.32,149.59,468.6,180.09,28.24,5.09,56.93,8,85.4,12,4.48.62,9.06.93,13.38,2.07,12.3,3.22,18.08,11.32,16.05,22.58-1.93,10.62-8.72,15.52-20.62,15.77-21,.44-41.34-3.59-61.68-6.69-180.95-27.55-349.73-85-503.6-178.69C1661.68,1876.9,1657.27,1872,1646.5,1873.07Z" transform="translate(-591.64 -517.03)"/><path class="cls-5" d="M1667.29,1965.24c-19.4,23.3-41.63,43-63.42,63.06C1492,2131.37,1359.66,2201.62,1208.48,2242c-35.5,9.49-71.67,15.94-107.67,23.19-21.38,4.31-34.86-1.48-37.64-14.53s5.59-20.56,29.51-24.66c112.63-19.31,219.21-53.54,317.7-108.76a872.27,872.27,0,0,0,226.34-181.85c17.85-20,23.19-21.42,47.59-7.79a1375,1375,0,0,0,272.07,115.82c72.87,22.1,147.19,39.19,223.39,48.4a119.78,119.78,0,0,1,15.82,3.19c16.23,4.22,22.13,12.21,18.76,24.95-2.85,10.75-13,16.32-27.83,14.25-21.3-3-42.58-6.16-63.74-9.9-142.63-25.2-278.25-69-406.09-133.18C1700.83,1983.2,1685.28,1974.7,1667.29,1965.24Z" transform="translate(-591.64 -517.03)"/><path class="cls-6" d="M1683.78,2055.73c-79.4,78.18-169.74,140.4-270.72,188.85-77.18,37-159,63.1-243.62,81.17-16.55,3.54-29.44-3.57-31.25-16.21-1.5-10.45,3.34-18.21,14.31-21.46,8.56-2.54,17.51-3.94,26.26-5.92q236-53.57,417.54-203.58c20.25-16.76,38.51-35.6,57.89-53.3,19-17.37,23.19-17.81,47.09-5.85,129.55,64.83,266.92,109.18,411.13,135.56,11.49,2.1,23.28,2.2,34.63,5.62,16.87,5.09,21.81,11,18.8,24.87-2.23,10.27-13.26,16.73-27.56,14.4-25.66-4.19-51.23-9-76.68-14.14a1537.66,1537.66,0,0,1-366.91-124C1691.5,2060.23,1688.5,2058.36,1683.78,2055.73Z" transform="translate(-591.64 -517.03)"/><path class="cls-6" d="M1482.79,640.79c120.42,9.16,226.59,47.05,318.58,117.44,77.68,59.43,131,134.68,169.91,220.62,39.35,86.94,100,159.08,188,209.05,34.84,19.8,71.82,35.15,111.76,43.92,9.63,2.12,19.37,4.12,28.66,7.22,11,3.66,14.89,11.94,12.75,22.24-2.21,10.68-10.56,15.62-21.47,15.47-7-.1-14.06-2.56-21.06-4.06-128.37-27.56-223.25-97.8-294-199-23.7-33.93-41.24-70.69-59.14-107.38-69.72-142.86-187.39-233.26-350-273.08-26.77-6.56-54.4-11.55-82.53-12.05-10-.18-20.17-1-24.51-11.88C1453.11,652.47,1463.79,640.28,1482.79,640.79Z" transform="translate(-591.64 -517.03)"/><path class="cls-6" d="M1697.15,2144.64c-80.41,70.47-169.24,127.36-267.11,171.89a1103.47,1103.47,0,0,1-163.25,59.3c-10.53,2.91-21.63,5.94-30.84-1.18-12.9-10-11.76-28.28,9.41-34.83,23.94-7.4,48.15-14.12,71.76-22.33,130-45.21,246.17-111.08,346.79-200.25,20.44-18.11,26.77-21.74,56.74-8.18,109.76,49.64,224.28,87,344.23,109.15,7.07,1.3,14.12,2.78,21.06,4.59,17.77,4.64,22.34,10.32,20.17,24.49-1.86,12.22-10.3,17.34-29,14.47-21.26-3.26-42.26-8.11-63.24-12.77-106.34-23.61-208.94-56.95-307.06-102C1704.49,2145.94,1701.69,2145.72,1697.15,2144.64Z" transform="translate(-591.64 -517.03)"/><path class="cls-6" d="M2275.53,1200.19c-8.12-2.3-18.54-4.84-28.66-8.19-104.09-34.45-175.93-102.19-227-191-21.68-37.69-36.83-78.36-59.82-115.47C1914.22,811.6,1852.8,751,1777.56,702.4c-20.21-13.06-25.59-24.67-16.42-36,7.41-9.12,23.06-8.19,41.2,3.31C1904.83,734.7,1981,820,2030,926c23.59,51,51.19,99.46,92.2,140.78,41.83,42.16,90.64,73.59,149.66,90.88,5.13,1.51,10.55,2.34,15.45,4.32,11,4.44,16.87,14.93,13.75,24.53C2297.64,1197,2288.72,1200.08,2275.53,1200.19Z" transform="translate(-591.64 -517.03)"/><path class="cls-6" d="M2006.25,2321c-5.34-1.09-15.06-2.8-24.62-5.09-86.35-20.69-170.86-46.53-252.4-80.19-12.68-5.24-20.94-4.24-31.38,4.07a1044,1044,0,0,1-122.17,83.3c-20.25,11.89-35.13,11.18-42.34-1.41-6.67-11.65-.86-21.61,19.64-33.33a871.86,871.86,0,0,0,127.8-88.66c16.65-14,31.4-15.82,51.21-7.2,87.63,38.12,179.19,65.84,273.14,87,4.38,1,8.84,1.78,13.08,3.16,11.12,3.63,19.49,14.31,16.5,22.59C2031,2315.38,2023.88,2322.68,2006.25,2321Z" transform="translate(-591.64 -517.03)"/><path class="cls-6" d="M1724.93,2312.6c-47.29,33.86-95.26,65.21-146.22,92.33-25.8,13.73-52.41,26.14-78.58,39.27-5.63,2.83-11.14,5.17-17.85,5-9.16-.2-15.23-4.16-19.54-11.37-4.81-8-1.21-14.48,4-20.77,4.6-5.59,11.45-8.08,17.92-11,76-34,146.41-76.18,212-125.21,15.44-11.53,28-12.34,46.53-5.14a1708.35,1708.35,0,0,0,178.4,57.87c20.32,5.44,25.22,11.35,23.53,25.25-1,8.65-5.49,14-15.27,14.43-10.94.52-21.27-1.41-31.91-4.34Q1810,2344.75,1724.93,2312.6Z" transform="translate(-591.64 -517.03)"/><path class="cls-6" d="M921.07,1378c2.69-12,.71-21.49-3.1-31-30.17-75-40.58-152.53-33.61-232.2.14-1.67-.08-3.38.15-5,2-14.53,11.3-24.29,22.88-24.15,13.18.16,21.65,10.46,19.93,26.9A454.59,454.59,0,0,0,944,1291.26c3.82,12.88,8.88,25.44,13.46,38.12,7.24,20,12.11,40.26,8,61.59-3.84,20-10.2,25-32.22,26.44-21.81,1.38-43-3.76-64.51-5.1-12-.74-19.8-7.57-18.82-20.24.94-12.16,8.76-19.36,23.53-18.8C888.66,1373.85,903.8,1376.2,921.07,1378Z" transform="translate(-591.64 -517.03)"/><path class="cls-6" d="M2127.81,957.8c1.41,8.55-3,14.38-10.65,18.51-9.3,5-17.59,2.21-24.78-3.68-6.92-5.67-10.21-13.76-13.66-21.44-24-53.36-50.11-105.57-87.13-152.55-9.34-11.86-6.94-24.66,3.31-31.16,10.9-6.93,21.66-4.67,32,8.19,30.25,37.78,54,79.05,74.5,122q10.95,23,22,45.86C2125.51,948.09,2128.85,952.3,2127.81,957.8Z" transform="translate(-591.64 -517.03)"/><path class="cls-6" d="M1737.66,2394.59c-25.51,16.16-50.68,32.24-76,48.07a109.17,109.17,0,0,1-18.79,9.71c-12.38,4.7-23.63,1.71-28-7.48-4.83-10.17-3.72-19.93,6.84-26.67,16.31-10.4,33.14-20.08,49.48-30.44,13.35-8.46,26.66-17.05,39.32-26.36s25.43-10.74,40.19-5.58c22.67,7.94,45.63,15.13,68.36,22.93,15.55,5.33,23.13,15.33,20.07,25.52-3.65,12.15-16.4,17.86-33.13,12.93C1783.8,2410.67,1762.09,2402.76,1737.66,2394.59Z" transform="translate(-591.64 -517.03)"/><path class="cls-6" d="M1497.12,2322.62c11.56.11,18.74,5.94,21.42,15.88,2.43,9-.91,16.15-10.23,21.07-45.6,24-93.53,43.35-142.37,60.75-13.93,5-25.16.25-29.33-10.07-4.78-11.85.05-22.2,15.14-27.87,45.13-17,90.24-33.93,132.44-56.77A25.26,25.26,0,0,1,1497.12,2322.62Z" transform="translate(-591.64 -517.03)"/><path class="cls-6" d="M2149.89,999.5c8.33-1.32,12.65,3.15,17,7.38,28.59,27.88,58.47,54,96.48,71.11,13.25,6,15.7,17.12,9.9,27.38s-16.37,13.92-30,7.88c-14.51-6.42-28.27-14.44-41.83-22.52-25.24-15-44.2-36.63-65.4-55.84-7.76-7-10.47-16.26-4.87-25.11C2135.11,1003.53,2140.84,997.06,2149.89,999.5Z" transform="translate(-591.64 -517.03)"/><path class="cls-6" d="M922.21,1489.93c-19.06.62-37.37-4.55-56.1-6.18-11.62-1-16-9.42-16.27-19.81-.31-11.45,6.78-16.88,17.83-18.07a84.63,84.63,0,0,1,21.51.43c31.43,4.76,62,6.61,91-10,11.77-6.75,24.28-2.7,30.69,6.74,7.45,11,1.13,19.49-7,26.44-14.55,12.4-33.72,15-52.09,18.37C942.16,1489.62,932.08,1489.3,922.21,1489.93Z" transform="translate(-591.64 -517.03)"/></g></svg>